M48
; DRILL file {KiCad 9.0.1} date 2025-07-05T00:27:36+0530
; FORMAT={-:-/ absolute / metric / decimal}
; #@! TF.CreationDate,2025-07-05T00:27:36+05:30
; #@! TF.GenerationSoftware,Kicad,Pcbnew,9.0.1
; #@! TF.FileFunction,Plated,1,2,PTH
FMAT,2
METRIC
; #@! TA.AperFunction,Plated,PTH,ViaDrill
T1C0.300
; #@! TA.AperFunction,Plated,PTH,ComponentDrill
T2C0.700
; #@! TA.AperFunction,Plated,PTH,ComponentDrill
T3C0.889
; #@! TA.AperFunction,Plated,PTH,ComponentDrill
T4C1.210
; #@! TA.AperFunction,Plated,PTH,ComponentDrill
T5C1.500
%
G90
G05
T1
X184.4Y-127.6
X194.4Y-130.6
X195.2Y-129.8
X196.4Y-130.6
X197.2Y-101.8
X207.0Y-101.8
X207.8Y-122.6
X207.8Y-124.6
X209.0Y-132.0
X214.2Y-103.2
X233.6Y-129.6
T2
X181.8Y-123.66
X181.8Y-128.74
X201.2Y-123.66
X201.2Y-128.74
X218.8Y-123.66
X218.8Y-128.74
X235.4Y-123.66
X235.4Y-128.74
T3
X195.6Y-96.748
X195.6Y-99.288
X195.6Y-101.828
X195.6Y-104.368
X195.6Y-106.908
X195.6Y-109.448
X195.6Y-111.989
X210.84Y-96.748
X210.84Y-99.288
X210.84Y-101.828
X210.84Y-104.368
X210.84Y-106.908
X210.84Y-109.448
X210.84Y-111.989
T4
X171.33Y-127.8
X173.87Y-127.8
X189.86Y-127.8
X192.4Y-127.8
X208.53Y-127.8
X211.07Y-127.8
X227.46Y-127.8
X230.0Y-127.8
T5
X169.66Y-140.46
X176.01Y-137.92
X188.87Y-140.46
X195.22Y-137.92
X208.07Y-140.46
X214.42Y-137.92
X227.27Y-140.46
X233.62Y-137.92
M30
